HIERARCHY
ROOT pelvis
{
  OFFSET 0 100 0
  CHANNELS 6 Xposition Yposition Zposition Zrotation Xrotation Yrotation
  JOINT pelvis_right_femur
  {
    OFFSET -10.78128 -3.44521 -0.5502486
    CHANNELS 3 Zrotation Xrotation Yrotation
    JOINT right_femur_tibia
    {
      OFFSET -0.8047443 -44.0398 -0.1307829
      CHANNELS 3 Zrotation Xrotation Yrotation
      JOINT right_tibia_foot
      {
        OFFSET 3.006224 -47.83518 -5
        CHANNELS 3 Zrotation Xrotation Yrotation
        End Site
        {
          OFFSET 0 -5 15
        }
      }
    }
  }
  JOINT pelvis_left_femur
  {
    OFFSET 10.78128 -3.44521 -0.5502486
    CHANNELS 3 Zrotation Xrotation Yrotation
    JOINT left_femur_tibia
    {
      OFFSET 0.8047443 -44.0398 -0.1307829
      CHANNELS 3 Zrotation Xrotation Yrotation
      JOINT left_tibia_foot
      {
        OFFSET -4.370144 -48.10324 -4.275266
        CHANNELS 3 Zrotation Xrotation Yrotation
        End Site
        {
          OFFSET 0 -5 15
        }
      }
    }
  }
  JOINT pelvis_spine1
  {
    OFFSET 0 6.468898 -3.129235
    CHANNELS 3 Zrotation Xrotation Yrotation
    JOINT spine1
    {
      OFFSET 0 23.15396 4.99043
      CHANNELS 3 Zrotation Xrotation Yrotation
      JOINT spine2
      {
        OFFSET 0 20.79997 -5.064912
        CHANNELS 3 Zrotation Xrotation Yrotation
        JOINT neck
        {
          OFFSET 0 14.38658 9.616178
          CHANNELS 3 Zrotation Xrotation Yrotation
          End Site
          {
            OFFSET 0 20 0
          }
        }
      }
      JOINT right_manubrium
      {
        OFFSET -5.722621 16.35077 3.967754
        CHANNELS 3 Zrotation Xrotation Yrotation
        JOINT right_clavicle
        {
          OFFSET -13.16364 1.694482 -4.693211
          CHANNELS 3 Zrotation Xrotation Yrotation
          JOINT right_humerus
          {
            OFFSET -28.5034 -0.3100689 -2.792744
            CHANNELS 3 Zrotation Xrotation Yrotation
            JOINT right_radius
            {
              OFFSET -25.15693 0.02248979 -1.271978
              CHANNELS 3 Zrotation Xrotation Yrotation
              End Site
              {
                OFFSET -15 0 0
              }
            }
          }
        }
      }
      JOINT left_manubrium
      {
        OFFSET 5.722621 16.35077 3.967754
        CHANNELS 3 Zrotation Xrotation Yrotation
        JOINT left_clavicle
        {
          OFFSET 13.16364 1.694482 -4.693211
          CHANNELS 3 Zrotation Xrotation Yrotation
          JOINT left_humerus
          {
            OFFSET 29.39168 -1.063119 -2.237045
            CHANNELS 3 Zrotation Xrotation Yrotation
            JOINT left_radius
            {
              OFFSET 24.59957 -0.9528479 0.9047498
              CHANNELS 3 Zrotation Xrotation Yrotation
              End Site
              {
                OFFSET 15 -0 -0
              }
            }
          }
        }
      }
    }
  }
}
MOTION
Frames: 7
Frame Time: 0.0416666666667
-655.9866 92.0534 3267.528 -5.462447 -6.940622 -37.24873 5.036104 15.2157 -1.880549 -0 12.85113 -0 -9.062276 -4.886731 0.4179079 1.74155 -20.1059 -2.52712 -0 17.77082 -0 1.464928 -5.747902 18.83568 0.237629 -1.817485 6.930211 -0.8452245 13.84216 -3.966138 1.831202 22.47653 3.557631 0.9078918 -19.62098 6.058811 -4.48475 -26.65896 11.41271 89.50386 16.21865 -8.642524 -0 0 21.05287 -26.99388 11.11518 15.96427 4.402246 -21.35658 -5.801191 -92.63106 14.42779 27.48373 0 0 -10.77098 8.385188 14.09171 2.877419
-659.2519 91.19632 3273.24 -5.623051 -7.499692 -37.56384 4.341882 15.43851 -1.777902 -0 17.68036 -0 -8.434843 -3.15657 0.09964239 1.082551 -19.1437 -2.821419 -0 17.6248 -0 1.04336 -6.121521 18.75558 -0.0383596 -1.692256 6.736965 -1.088138 13.6951 -3.796885 1.908222 22.69016 3.656644 0.9746414 -19.147 6.139933 -4.369687 -26.09047 11.29308 89.68197 15.93195 -8.526029 -0 0 20.6308 -27.43357 10.82068 16.06697 4.303516 -20.93027 -5.883625 -92.3728 14.86877 26.88586 0 0 -10.14128 7.719373 13.6901 3.7049
-662.6167 90.65107 3279.076 -5.808784 -8.125919 -37.71113 3.645266 14.94449 -1.73298 -0 22.6209 -0 -7.821251 -0.9815434 -0.3688198 0.3046868 -17.37103 -3.105065 -0 18.38309 -0 0.4770345 -6.565835 18.47006 -0.2953646 -1.547862 6.436076 -1.303684 13.56306 -3.70595 1.997633 22.93272 3.774359 1.058724 -18.63021 6.230714 -4.258847 -25.2754 11.17289 90.1069 15.56015 -8.784312 -0 0 19.71903 -27.85815 10.53513 16.04409 4.219051 -20.63611 -6.041035 -91.844 15.30931 25.7915 0 0 -9.867799 7.143939 13.2361 4.430737
-666.0907 90.44406 3285.03 -5.976214 -8.725763 -37.6902 3.008425 13.76126 -1.755229 -0 27.17748 -0 -7.282145 1.354581 -0.9184968 -0.5201937 -14.98286 -3.386571 -0 19.65194 -0 -0.1134448 -7.086821 18.0487 -0.5188122 -1.409772 6.059297 -1.464377 13.45188 -3.705423 2.084193 23.17157 3.907167 1.151942 -18.15391 6.330808 -4.154118 -24.33276 11.06304 90.69848 15.17532 -9.360114 -0 0 18.4698 -28.19459 10.28266 15.90085 4.165741 -20.49778 -6.245228 -91.13329 15.70594 24.36654 0 0 -9.95555 6.727481 12.80961 4.97062
-669.6645 90.55601 3291.077 -6.092666 -9.224152 -37.51426 2.47946 11.94151 -1.851156 -0 30.94702 -0 -6.873753 3.618068 -1.479691 -1.330231 -12.16526 -3.672852 -0 21.09539 -0 -0.6270758 -7.684682 17.55347 -0.696692 -1.299717 5.635605 -1.550235 13.36782 -3.801543 2.155659 23.38012 4.050702 1.246915 -17.78497 6.439279 -4.061045 -23.36752 10.9723 91.39063 14.82915 -10.19606 -0 0 17.01974 -28.39016 10.08173 15.64828 4.155521 -20.5319 -6.473307 -90.32269 16.01985 22.76322 0 0 -10.39621 6.522087 12.47845 5.258866
-673.3178 90.93201 3297.181 -6.140822 -9.569386 -37.20778 2.090125 9.567129 -2.020823 -0 33.63987 -0 -6.642798 5.636501 -1.990325 -2.074562 -9.091022 -3.965877 -0 22.47362 -0 -0.9929375 -8.349046 17.034 -0.8196611 -1.233299 5.190691 -1.550223 13.31686 -3.993631 2.203854 23.5396 4.199322 1.337427 -17.56795 6.553783 -3.987656 -22.46297 10.90711 92.13432 14.55135 -11.23703 -0 0 15.48189 -28.41622 9.944445 15.3022 4.194275 -20.74555 -6.708276 -89.48138 16.2217 21.11049 0 0 -11.16743 6.559654 12.28942 5.25379
-677.0275 91.49471 3303.304 -6.119618 -9.735387 -36.80371 1.855919 6.753646 -2.256105 -0 35.09066 -0 -6.619691 7.299874 -2.403269 -2.713559 -5.921276 -4.26017 -0 23.65764 -0 -1.175102 -9.055558 16.52599 -0.8812946 -1.218593 4.747321 -1.462864 13.30373 -4.27333 2.225087 23.63972 4.345867 1.418536 -17.52234 6.670051 -3.942753 -21.67764 10.87146 92.89562 14.35096 -12.42849 -0 0 13.94433 -28.26921 9.876516 14.8827 4.2814 -21.13371 -6.938488 -88.66336 16.29361 19.51006 0 0 -12.23084 6.849709 12.263 4.941284
